<svg xmlns="http://www.w3.org/2000/svg" viewBox="60 280 1815 1370" role="img" aria-label="Basaltbeißer">
  <!-- Wappen: dunkle Kontur, roter Rand, gelbes Feld, rotes B (liegt vollständig im gelben Feld) -->
  <g stroke="#1b2436" stroke-linejoin="round">
    <path d="M435 315 H1495 L1835 655 L965 1610 L95 655 Z" fill="#e01b24" stroke-width="34"/>
    <path d="M505 390 H1425 L1710 650 L965 1455 L220 650 Z" fill="#f5c431" stroke-width="34"/>
    <path
      d="M745 445
         H1135
         C1245 445 1303 512 1303 598
         C1303 672 1255 725 1173 743
         C1250 758 1300 825 1300 915
         C1300 1050 1215 1170 1080 1170
         H745 Z
         M975 580 H1095 C1150 580 1179 606 1179 650 C1179 694 1150 720 1095 720 H975 Z
         M975 855 H1120 C1185 855 1220 890 1220 950 C1220 1010 1185 1045 1120 1045 H975 Z"
      fill="#e01b24" stroke-width="34" fill-rule="evenodd"/>
    <path d="M745 445 L815 515 V1170" fill="none" stroke-width="26"/>
  </g>
</svg>
